P2
80
60
255
58 115 125 92 32 28 237 52 236 21 254 180 25 198 91 239 48 81 52 49 161 180 93 217 11 58 162 63 121 188 199 51 6 52 187 135 130 36 127 41 118 70 56 84 40 22 249 77 4 168 182 50 4 78 240 93 121 151 141 208 209 16 96 65 199 104 233 35 139 86 189 82 83 216 38 197 225 67 113 214 
3 135 125 110 23 125 170 155 95 69 106 185 236 173 111 52 163 151 84 53 198 175 226 3 227 80 122 91 142 43 16 61 134 38 71 184 155 235 25 42 8 191 168 127 143 1 152 225 252 243 148 103 121 47 88 59 67 89 227 188 50 143 63 16 152 9 89 187 1 124 130 168 68 170 248 42 118 184 21 123 
247 34 115 54 223 211 195 178 45 176 23 2 53 146 213 67 119 233 60 59 102 9 119 109 176 224 251 75 135 141 156 14 107 82 234 171 244 111 73 106 30 86 82 161 148 199 235 10 129 73 167 64 92 130 231 218 57 251 56 166 25 177 117 136 188 31 42 119 114 20 180 30 116 249 171 155 49 236 0 227 
219 36 199 143 125 54 23 50 253 161 54 116 134 246 181 120 157 251 227 188 113 250 27 93 8 214 185 224 220 112 58 13 99 209 6 77 247 155 98 14 175 74 10 188 159 183 245 179 255 102 195 198 188 30 79 204 244 77 244 179 217 171 240 160 124 180 118 148 3 94 235 29 201 159 194 145 228 61 144 77 
197 221 230 63 10 141 121 13 215 143 190 236 232 13 206 119 252 193 143 138 151 195 75 97 87 214 161 227 90 151 61 159 53 40 238 2 249 198 130 45 206 209 247 16 157 201 128 39 71 181 213 110 246 129 87 5 245 203 137 10 159 160 81 22 222 169 146 254 185 80 146 53 120 75 184 104 209 33 14 199 
216 95 137 44 147 164 44 182 210 170 34 160 11 64 159 14 10 7 152 125 181 98 84 106 65 187 42 19 110 155 10 207 43 41 49 134 64 112 155 184 106 16 174 163 116 187 159 5 199 14 13 237 239 74 89 48 164 91 49 237 195 192 220 182 189 202 184 195 12 179 116 203 21 14 133 242 8 15 77 74 
218 247 85 204 165 79 70 102 112 134 99 93 208 73 181 14 97 158 132 249 110 101 229 145 66 92 170 84 156 39 50 158 188 210 158 190 151 88 222 208 172 172 46 212 246 196 96 133 130 27 156 121 39 70 240 245 220 246 75 13 48 12 86 130 101 33 171 222 170 26 246 84 244 51 106 225 255 19 34 44 
147 205 89 164 112 138 141 63 13 232 163 182 255 223 177 74 198 138 220 12 169 142 66 72 142 99 178 149 109 16 168 20 186 204 19 83 99 2 100 92 215 73 106 107 142 189 111 206 161 66 40 109 237 52 225 128 53 252 131 228 214 17 210 162 130 220 128 29 130 14 130 101 2 218 49 55 230 148 183 38 
210 199 25 142 234 138 231 184 58 80 108 253 151 84 235 153 123 247 196 176 113 247 68 101 44 73 232 70 207 244 138 130 232 134 10 120 156 149 219 16 133 217 16 105 186 76 73 89 145 226 31 57 144 84 126 134 9 116 102 212 239 152 172 141 84 150 34 7 34 207 180 103 122 200 240 210 78 223 141 124 
210 254 171 94 108 233 53 4 1 122 160 24 194 170 54 157 209 215 173 149 171 96 108 101 42 189 42 124 165 142 108 175 164 33 83 203 174 247 74 227 181 189 10 218 146 59 119 160 35 201 215 171 125 170 224 40 181 243 37 105 202 92 80 5 30 150 196 56 17 141 12 244 48 49 170 54 123 46 184 8 
138 48 54 238 136 65 25 136 176 148 72 165 202 194 224 216 73 68 146 174 30 95 225 119 65 171 230 114 138 197 9 220 57 150 75 93 206 201 130 84 153 210 31 140 146 40 246 201 234 12 127 189 228 132 30 215 105 234 236 123 229 162 126 19 220 110 47 138 198 230 110 158 171 144 132 154 251 21 100 240 
244 102 200 27 48 119 185 128 112 11 232 123 246 3 66 169 28 139 38 36 176 142 242 7 119 46 98 193 95 207 109 173 213 32 249 120 200 180 8 200 207 166 194 180 2 185 234 126 238 149 70 31 66 120 98 18 150 1 66 239 230 124 132 75 49 53 93 101 193 90 9 22 157 227 36 145 165 2 101 103 
19 94 152 150 34 164 98 173 190 29 117 30 29 77 52 108 200 64 83 216 95 240 148 44 45 88 19 246 10 184 167 185 21 142 203 137 186 187 162 156 136 92 133 74 93 212 165 2 92 134 63 168 62 190 222 236 105 83 49 13 94 111 239 144 250 12 78 104 1 172 139 11 128 174 2 251 127 233 89 68 
110 142 214 58 69 78 221 234 11 187 83 65 125 24 19 140 152 210 251 168 29 63 102 161 220 4 28 181 50 141 61 35 64 29 168 94 91 249 86 18 55 46 49 135 74 109 228 213 231 129 32 127 146 222 226 215 16 201 42 198 171 151 174 104 51 140 10 6 56 201 224 223 250 219 121 87 149 94 95 245 
4 62 201 68 157 128 151 168 202 97 52 196 37 241 80 251 231 154 104 145 10 170 232 166 85 161 252 175 192 188 111 244 192 63 58 142 238 10 44 102 148 225 54 180 152 2 216 128 72 113 46 163 141 142 32 202 241 104 44 251 24 78 94 24 9 40 220 228 233 11 154 14 132 143 176 179 72 107 200 233 
235 19 234 240 116 1 132 34 176 143 176 48 237 43 26 215 24 113 166 50 149 164 130 86 96 78 57 216 255 142 89 189 181 134 27 81 127 127 149 107 94 42 248 149 103 145 87 160 28 46 110 33 144 171 0 86 208 208 55 244 26 15 135 94 92 70 167 199 116 34 7 186 200 170 89 142 154 124 153 61 
80 66 198 182 157 183 188 23 79 92 83 44 125 221 31 224 215 0 47 177 118 221 110 233 169 240 174 98 44 125 238 101 78 190 76 17 149 104 37 217 63 255 236 141 71 122 49 122 79 187 82 27 254 84 103 210 85 34 216 64 105 49 40 160 25 122 108 190 47 240 251 249 119 85 200 215 64 111 236 173 
197 10 153 254 143 152 117 121 15 159 36 119 189 63 121 217 44 81 52 173 51 209 35 136 235 1 227 81 7 195 174 12 8 172 206 21 198 82 35 94 210 82 65 31 52 139 172 130 2 27 169 199 75 143 37 97 224 199 66 139 120 31 232 218 164 74 8 68 35 99 223 33 16 191 231 164 101 239 210 82 
115 69 240 16 225 49 175 106 194 204 10 138 210 145 230 9 83 54 67 72 195 19 123 211 146 92 85 102 92 208 64 18 29 53 104 255 239 64 247 86 197 97 38 198 163 228 134 45 220 254 15 228 210 53 110 36 178 174 19 24 182 212 129 3 98 234 99 19 75 245 216 76 211 141 139 24 117 13 6 248 
48 162 66 240 162 136 54 253 248 242 105 166 229 19 206 161 155 171 47 88 32 126 189 154 4 18 210 73 5 57 85 156 25 224 73 97 99 173 12 208 146 227 176 98 37 10 13 48 25 232 243 95 135 64 2 19 161 217 185 106 155 77 30 5 4 36 149 143 254 184 104 219 226 95 106 0 212 93 77 4 
115 144 83 16 219 97 6 241 126 112 148 184 180 229 192 43 24 67 55 142 40 55 69 249 246 91 104 107 115 112 41 2 191 128 203 234 17 119 74 129 174 165 42 31 118 193 154 32 119 200 102 144 26 97 56 18 98 35 173 115 179 81 188 109 181 143 233 35 188 248 205 193 78 52 113 220 50 247 241 245 
141 222 197 204 118 235 82 157 227 172 2 20 222 251 105 208 45 181 233 175 125 63 239 86 158 225 247 65 40 123 191 247 31 17 58 214 14 179 182 241 33 59 190 147 172 105 55 204 186 207 48 167 6 32 244 105 250 81 201 120 31 22 246 80 135 59 117 21 178 74 229 65 108 30 56 229 37 184 144 7 
12 176 173 115 129 193 99 255 127 80 165 215 191 158 88 5 86 34 79 123 43 250 228 18 158 96 121 82 192 154 91 112 183 241 123 26 191 41 155 118 76 242 69 238 208 227 58 58 154 116 173 33 95 117 242 139 227 139 254 74 58 40 81 37 53 141 195 166 107 66 165 39 98 155 215 163 91 176 42 198 
74 93 82 103 64 124 154 126 215 139 90 182 195 42 97 164 191 100 137 231 75 26 203 217 243 218 155 108 159 156 13 171 106 234 65 101 138 240 155 130 179 244 67 132 148 190 108 169 203 90 231 63 244 213 124 154 49 87 144 55 197 40 144 135 54 32 168 229 118 3 61 45 150 61 189 136 130 143 39 216 
147 205 28 137 44 74 67 180 186 253 52 229 175 239 129 81 229 77 230 247 194 138 28 217 146 136 149 0 142 96 176 216 18 46 216 90 143 119 23 132 158 155 157 170 210 216 176 15 178 99 150 84 106 13 234 56 168 250 228 41 44 233 17 34 142 144 253 94 169 132 81 93 69 53 218 183 103 126 8 64 
136 137 8 12 36 45 208 153 35 237 9 216 130 231 32 171 165 98 2 98 24 222 245 211 110 36 85 61 176 203 161 83 239 185 100 11 102 24 125 164 187 75 49 96 216 86 170 128 215 65 60 237 148 245 17 40 72 20 164 229 202 64 160 236 228 105 136 168 60 140 205 245 97 105 165 167 105 184 83 72 
17 60 41 20 158 114 84 155 14 97 37 137 87 177 106 122 186 66 230 180 57 235 126 3 91 75 107 111 168 78 231 93 107 194 222 137 48 155 34 101 139 76 153 88 150 200 246 93 186 164 106 132 48 215 219 214 203 157 26 21 124 251 158 226 27 97 53 194 241 241 72 128 132 232 12 124 29 161 68 73 
74 131 63 74 159 152 100 21 31 160 81 68 39 20 40 178 198 113 236 92 219 155 13 4 228 186 87 53 244 38 208 248 84 227 246 230 71 21 240 248 125 16 31 161 174 99 163 181 218 114 60 147 182 27 26 33 194 221 30 8 135 13 245 189 123 151 165 211 20 190 3 22 128 113 143 237 132 159 60 138 
180 117 5 70 203 62 16 33 155 142 215 136 142 104 167 141 104 88 231 84 171 155 176 217 70 111 125 173 29 23 96 38 220 18 90 120 157 1 49 73 224 189 97 43 83 35 162 145 234 7 113 176 202 229 60 210 131 182 139 151 32 131 208 175 124 27 52 122 120 137 255 36 120 174 19 168 175 144 242 78 
45 214 149 37 190 73 128 140 70 144 153 53 186 14 224 24 229 169 124 179 43 230 175 67 135 34 189 217 62 98 75 201 209 57 193 234 164 77 23 57 220 242 169 79 251 92 120 49 181 237 108 251 117 29 11 224 43 116 42 8 192 40 27 195 213 201 203 150 46 142 95 165 90 184 205 238 27 138 232 226 
230 234 45 147 96 25 218 145 189 243 44 202 150 66 186 93 73 72 72 47 172 250 184 213 37 120 33 125 158 76 138 92 225 225 191 24 205 199 202 183 241 40 144 142 10 17 13 176 216 235 172 95 228 191 73 254 150 183 76 4 58 101 107 109 89 65 137 50 2 244 57 62 102 217 94 98 94 73 112 210 
101 22 80 255 233 75 183 145 151 255 134 241 87 105 226 20 77 169 143 215 87 8 221 172 92 227 49 161 223 184 131 87 89 231 119 100 223 145 117 157 149 41 73 192 94 37 211 21 101 97 58 113 224 165 43 29 166 215 160 51 10 82 176 213 127 237 232 217 135 37 172 90 102 240 38 172 40 189 52 69 
86 40 99 147 210 240 223 81 151 16 44 113 99 217 41 217 166 122 121 140 208 227 157 195 26 239 71 15 61 104 87 25 160 87 14 100 105 39 239 175 15 19 213 90 212 114 180 102 174 70 145 130 43 163 39 169 188 106 190 210 243 204 180 50 58 36 54 137 112 166 170 12 250 83 76 80 207 201 120 212 
76 89 195 146 108 187 24 204 189 107 28 164 146 183 133 141 30 171 55 177 181 169 187 194 94 68 213 189 71 211 176 40 136 61 30 75 202 119 124 221 62 73 167 177 113 187 139 215 121 203 204 181 253 209 10 158 142 32 57 94 226 96 151 65 101 35 187 18 162 44 52 145 2 248 81 233 110 251 115 150 
201 43 96 140 189 72 32 27 188 234 14 83 64 150 67 126 67 52 149 20 98 6 136 231 137 248 134 121 145 208 216 238 114 199 220 32 97 250 254 88 129 65 244 30 140 231 183 183 252 193 193 185 59 40 10 71 80 80 69 104 141 134 223 7 189 203 66 13 88 81 210 30 52 88 52 120 53 238 75 115 
48 39 139 98 67 170 21 104 147 244 174 90 71 149 47 189 55 235 37 209 190 65 45 40 127 182 251 187 138 107 131 20 115 125 214 246 200 71 30 21 122 105 71 88 169 33 211 29 88 99 83 10 144 68 11 235 103 33 63 19 111 29 171 198 20 95 157 51 95 156 67 108 158 106 150 242 126 220 121 68 
62 77 33 110 59 64 5 112 143 74 48 226 157 25 100 150 250 13 219 100 108 143 157 67 124 204 49 154 29 112 19 53 221 202 134 121 43 219 48 61 49 231 9 220 184 227 25 246 159 103 143 95 108 126 156 194 94 251 171 119 157 172 100 2 246 13 254 207 170 226 106 145 199 71 199 223 160 178 170 123 
52 88 71 133 40 242 100 41 237 223 219 59 11 88 224 110 180 66 210 225 247 201 186 238 100 83 254 27 180 74 206 162 218 69 203 21 33 253 106 145 173 173 135 24 10 59 187 121 37 194 231 88 66 246 116 199 114 218 211 2 246 88 179 191 39 43 108 144 74 165 44 240 238 204 83 83 47 86 144 227 
214 255 78 172 72 96 29 78 200 46 79 199 105 207 202 192 172 92 144 238 78 134 231 197 182 242 236 104 129 159 252 93 182 203 138 131 16 212 204 197 246 160 206 14 138 3 101 7 91 167 132 9 60 246 111 216 187 127 81 158 177 102 180 166 129 78 91 86 108 68 246 240 139 48 63 142 234 62 245 223 
151 31 182 227 218 49 42 248 134 91 66 105 163 110 91 58 128 248 196 126 223 50 123 210 26 226 172 120 227 159 125 167 255 253 166 121 142 39 72 10 98 92 157 60 215 221 222 164 182 189 3 34 166 27 191 161 157 72 80 126 229 85 141 28 31 135 200 30 215 58 239 203 28 165 127 26 165 15 182 232 
230 228 82 68 229 92 17 149 87 240 50 32 216 224 152 103 250 66 239 6 171 132 255 144 76 119 101 176 247 112 72 36 118 250 117 5 114 150 117 225 71 11 13 39 19 208 180 98 111 251 119 199 98 73 203 147 248 179 220 184 24 24 189 96 255 115 21 189 246 38 183 169 176 211 174 156 224 76 57 112 
210 138 127 189 22 75 45 38 88 205 207 182 32 147 35 202 143 160 245 242 248 134 13 68 17 229 132 237 63 239 231 128 122 88 185 116 74 73 206 94 91 200 252 109 49 21 163 144 105 139 155 225 33 111 231 198 235 61 209 68 231 237 217 22 107 177 254 248 199 174 222 165 166 42 47 26 132 184 23 138 
54 13 211 55 127 92 229 149 101 110 29 231 94 234 199 180 159 201 34 94 208 98 7 141 112 19 253 247 139 9 96 15 36 174 251 10 233 51 171 211 160 191 127 84 223 191 223 168 119 209 42 169 49 218 94 97 60 177 61 223 233 248 116 230 29 139 66 1 14 22 34 124 182 74 242 181 149 51 33 87 
88 54 243 85 84 88 123 48 75 5 68 221 39 153 202 108 97 94 226 148 110 81 200 9 81 230 22 154 216 99 42 154 3 54 107 15 18 221 1 44 188 210 110 147 17 5 150 228 134 91 171 11 163 181 132 229 226 5 226 163 53 231 20 120 175 71 140 20 224 142 218 103 85 212 143 40 186 166 142 171 
209 173 22 53 110 153 50 20 244 79 137 223 94 84 186 184 250 141 242 175 232 158 235 21 111 0 114 46 156 68 6 228 186 4 2 223 23 11 218 149 149 44 238 200 152 72 101 248 186 5 159 63 212 185 182 40 217 6 148 238 1 161 17 178 197 209 171 32 44 29 76 3 234 169 159 77 204 197 119 14 
27 135 45 91 214 192 197 132 3 75 232 83 235 75 84 117 31 118 172 140 244 17 101 131 180 122 33 57 17 209 8 0 69 55 160 128 113 39 145 102 186 105 238 119 148 26 114 120 205 86 52 105 211 237 86 165 171 193 50 81 42 48 116 165 225 26 187 153 65 11 41 89 128 234 110 33 175 212 208 234 
14 193 136 181 141 203 153 41 142 21 92 101 72 172 255 76 217 19 247 14 19 175 72 128 23 238 105 246 100 177 73 26 182 120 248 79 85 206 113 6 57 117 254 161 151 215 201 78 72 51 3 106 155 13 51 224 252 96 33 10 4 16 230 149 106 30 155 228 81 27 43 116 120 92 193 196 206 116 93 57 
54 140 50 11 89 25 253 101 183 198 251 23 116 157 56 12 252 153 230 175 161 39 188 32 150 222 86 66 164 206 44 58 44 13 130 213 252 215 241 90 91 236 236 63 237 131 212 76 219 120 21 164 191 23 202 60 227 19 110 49 65 43 15 150 206 239 144 25 145 54 117 33 254 185 174 204 29 87 250 89 
146 41 203 37 8 252 40 34 168 128 172 164 194 1 6 238 126 99 189 155 44 39 141 21 140 52 122 155 133 248 9 87 203 88 55 12 250 241 146 199 158 42 21 51 176 150 36 237 255 43 66 115 14 194 248 36 227 115 107 204 69 56 34 66 236 103 126 159 31 120 101 118 74 165 155 175 0 206 80 103 
24 33 220 251 255 139 160 189 207 25 254 214 167 199 10 61 65 31 255 202 205 148 143 241 156 145 203 5 36 189 42 104 228 5 34 61 153 206 221 15 80 240 137 238 210 222 188 141 231 143 121 206 242 153 66 84 100 12 209 131 147 131 221 128 85 233 129 162 11 131 188 233 118 165 128 222 234 171 230 125 
122 96 47 223 35 122 137 104 76 219 195 106 78 103 240 74 31 146 95 191 100 99 195 76 134 83 21 98 75 146 187 166 102 37 112 212 149 109 108 190 182 140 76 248 99 44 62 155 138 32 235 174 139 117 163 172 84 84 75 177 254 78 138 193 110 136 186 181 112 68 23 72 220 83 176 196 56 221 153 206 
195 44 172 213 131 53 118 118 207 241 137 166 26 14 74 64 59 179 253 13 76 202 99 184 239 133 142 215 128 189 79 109 176 141 215 136 3 186 252 87 193 105 172 82 197 149 3 233 189 212 141 64 82 230 50 106 179 136 75 182 17 18 92 131 127 97 251 25 190 136 96 20 108 197 28 204 37 74 120 77 
198 16 84 81 200 111 20 68 0 9 243 165 9 117 6 77 205 105 89 118 106 11 104 24 32 55 104 238 210 45 229 182 159 53 42 29 2 183 2 218 10 64 66 124 30 245 172 109 215 0 157 158 104 102 14 109 24 209 102 48 73 204 159 2 154 236 55 47 141 112 119 222 73 206 137 100 230 176 222 207 
204 89 6 170 251 122 61 52 63 230 43 71 208 254 117 8 162 115 41 224 11 116 240 42 99 186 249 121 27 234 30 243 209 209 195 81 214 245 234 232 180 7 6 87 41 168 2 74 32 8 2 214 25 222 96 234 148 59 93 100 243 178 17 50 77 96 13 21 199 66 61 122 220 113 126 233 33 173 110 150 
19 127 177 221 36 121 119 131 154 115 9 84 194 86 99 149 175 98 201 162 217 247 4 201 212 107 127 237 178 90 197 106 128 248 222 179 101 229 17 61 226 3 132 30 180 202 64 247 216 159 15 154 45 173 198 241 54 188 101 171 132 139 160 33 57 42 67 5 50 219 0 76 78 229 15 222 86 251 63 128 
57 158 194 153 97 60 128 197 5 60 86 41 120 16 16 124 68 192 186 213 51 227 133 102 233 0 239 99 124 225 179 152 160 66 10 27 211 112 172 183 28 86 28 114 196 102 196 196 173 248 79 245 155 136 214 37 23 102 78 122 85 69 198 246 160 62 232 130 215 178 71 144 105 155 245 241 98 197 222 85 
92 183 202 93 223 93 223 237 250 88 151 161 153 68 3 151 127 121 179 77 108 109 254 153 111 23 65 108 242 249 143 233 234 38 78 80 197 234 75 55 128 120 185 142 118 41 168 3 83 217 99 38 202 194 72 237 105 120 144 253 48 106 129 73 74 128 153 135 127 63 38 237 216 4 209 194 237 204 148 69 
87 29 26 192 52 226 99 58 221 196 34 38 96 60 18 141 207 187 120 70 45 38 187 9 122 87 191 50 84 17 170 195 177 231 123 34 52 172 248 3 155 201 120 31 195 27 8 14 200 194 99 235 189 108 74 43 123 152 173 39 16 82 55 238 60 233 168 188 145 27 148 190 168 65 237 128 235 233 242 158 
1 215 243 197 17 164 176 17 29 40 146 40 242 168 249 76 250 23 100 202 155 239 246 123 206 44 8 20 128 225 53 230 46 245 102 121 69 127 103 132 196 64 115 203 154 196 71 98 73 156 55 195 75 65 190 88 182 20 21 209 158 252 72 242 189 46 77 41 221 140 156 159 125 42 198 18 57 118 145 33 
128 117 133 12 241 20 228 252 125 132 217 166 178 26 71 74 88 170 105 189 160 50 227 241 6 6 70 176 78 15 121 50 51 139 133 243 64 220 85 80 74 217 214 117 26 48 4 14 192 77 97 65 10 68 81 118 166 84 228 98 114 98 132 223 108 4 14 8 214 155 216 42 245 234 25 236 7 189 62 78 
