P2
80
60
255
18 6 9 51 230 208 4 121 47 72 250 150 223 231 223 197 157 160 36 28 219 85 78 238 206 15 30 161 163 88 199 119 150 75 183 200 79 215 112 42 24 178 244 11 91 121 62 65 251 136 82 1 244 254 88 209 216 115 75 230 142 221 185 116 241 45 20 107 180 22 18 49 30 134 161 186 23 85 234 167 
167 220 226 121 45 62 146 173 10 204 30 52 24 249 240 159 43 144 73 180 140 41 38 63 36 47 155 53 236 5 44 185 5 193 149 108 28 3 150 168 120 97 51 3 71 236 236 182 169 87 109 91 231 40 63 124 113 143 230 139 11 79 3 160 185 66 232 160 225 248 40 52 39 234 157 29 127 203 109 91 
195 148 27 219 229 175 150 153 177 134 109 120 244 238 133 74 190 182 210 90 130 228 251 162 25 195 149 125 34 34 139 101 70 97 29 34 217 181 10 10 100 50 77 181 134 23 15 189 190 215 34 245 148 104 179 169 155 77 142 88 230 228 139 119 71 122 154 175 6 150 235 28 100 12 193 17 145 79 92 216 
73 67 207 9 24 109 59 80 225 190 217 176 193 157 199 246 188 251 5 110 24 28 144 78 19 128 134 6 85 118 202 249 176 223 195 31 172 145 141 17 81 230 73 254 205 249 232 7 76 6 2 131 172 112 58 182 112 255 165 97 128 180 191 201 47 209 106 157 12 140 107 79 252 226 1 75 30 24 246 158 
57 253 29 86 176 26 175 84 74 32 168 236 190 69 4 243 241 79 65 21 106 38 214 231 174 70 93 137 21 113 242 87 145 68 56 53 220 12 160 219 166 124 77 196 37 166 61 31 160 203 18 94 104 130 22 201 192 164 239 172 57 146 126 147 255 70 122 21 147 190 45 179 123 44 241 69 95 128 212 123 
20 94 62 96 229 244 180 74 167 216 190 204 170 46 95 172 181 112 148 140 79 189 30 172 237 229 233 34 118 177 139 11 151 223 93 51 129 86 170 189 112 26 123 58 146 115 120 194 204 207 101 129 202 219 185 62 247 89 200 90 198 44 12 206 212 30 7 151 101 222 55 37 186 183 174 62 193 133 185 221 
225 158 185 218 240 130 221 173 188 18 83 39 139 59 13 163 30 103 75 32 166 214 157 31 178 216 158 30 159 116 252 57 12 220 57 102 209 84 174 217 238 242 83 2 5 191 195 181 204 183 2 229 12 50 138 145 147 40 15 67 176 211 141 187 174 58 15 50 209 24 191 201 79 163 180 137 208 184 250 151 
5 40 97 133 65 91 164 3 67 107 146 89 35 67 117 197 44 252 36 58 250 215 226 29 250 140 101 253 218 88 134 224 88 92 29 142 8 193 133 108 118 35 66 94 58 204 92 52 108 47 219 28 13 52 235 157 207 201 50 162 199 60 194 8 144 221 64 50 78 110 171 46 27 215 82 224 101 164 116 176 
215 91 132 174 209 220 65 152 252 85 207 202 18 149 231 135 142 117 186 170 44 66 2 28 115 29 238 252 215 204 84 247 230 115 190 76 11 207 187 9 92 78 20 246 255 167 62 174 159 93 170 106 108 179 96 2 55 148 114 154 16 231 180 128 7 214 81 191 110 141 171 219 51 219 11 73 206 85 168 18 
49 107 12 54 194 20 172 253 101 29 247 221 236 240 20 72 247 44 103 213 154 77 190 108 249 56 58 6 90 19 108 135 52 1 50 54 179 49 203 70 59 199 158 255 92 31 67 251 198 232 63 254 179 154 251 232 74 193 116 62 120 168 34 206 204 209 157 235 192 214 117 194 1 19 200 70 48 183 10 56 
48 138 157 196 229 98 98 71 134 222 236 35 196 229 118 86 164 32 253 147 115 173 214 254 223 196 41 165 178 237 203 66 170 37 245 183 247 150 101 210 214 68 89 204 207 63 236 10 17 213 85 163 118 72 137 35 159 128 186 13 186 66 56 168 95 103 57 128 23 148 245 49 1 240 178 239 20 97 39 81 
250 229 95 235 42 167 125 157 75 252 146 126 253 61 176 118 57 59 233 140 21 111 240 218 25 161 252 184 153 109 117 129 150 48 241 145 169 234 240 221 126 126 231 193 74 219 19 107 217 152 147 121 156 108 81 57 64 27 41 25 82 66 229 183 105 147 123 33 94 244 20 189 3 15 96 88 236 197 176 222 
47 217 204 61 19 81 243 57 174 160 159 89 132 175 173 212 155 39 240 81 190 101 150 124 232 140 135 100 112 22 42 46 82 135 39 158 59 168 142 227 186 207 248 72 39 197 22 34 189 179 48 157 96 161 20 212 148 7 251 186 45 244 220 86 38 60 172 206 46 66 20 199 102 201 28 142 208 91 57 157 
159 68 60 84 44 111 233 158 47 221 198 157 167 50 39 244 16 40 232 249 199 23 112 195 151 100 147 230 208 119 207 119 132 159 93 189 80 123 160 34 79 76 103 220 144 212 144 202 188 26 121 16 65 181 217 235 168 11 98 56 112 8 199 64 25 207 153 47 179 230 118 207 145 89 28 245 151 83 206 43 
13 173 176 213 237 180 30 92 128 195 164 151 144 175 112 249 215 24 204 13 59 155 134 73 65 40 92 198 73 246 225 81 8 154 106 104 193 192 123 139 196 0 50 124 170 92 52 211 211 212 157 125 164 170 111 150 11 181 4 37 188 103 253 62 181 229 56 251 130 203 66 226 191 9 202 32 94 102 154 49 
142 215 120 220 12 76 11 69 199 237 183 75 246 25 76 56 155 227 220 193 243 114 22 62 141 242 251 42 136 131 135 114 128 195 185 3 154 75 143 45 69 200 99 65 25 18 48 6 102 206 74 111 234 28 244 25 47 204 100 24 21 157 174 136 254 0 31 103 47 238 116 62 204 59 134 11 8 254 218 248 
252 22 9 224 143 132 168 92 66 197 234 161 201 38 28 85 149 179 87 14 148 119 242 182 61 226 13 224 109 239 160 146 149 111 169 251 192 11 226 156 218 115 136 96 221 68 188 43 59 24 233 81 40 76 193 135 45 244 79 189 141 132 142 112 253 164 33 233 46 185 142 235 161 163 145 90 86 30 255 73 
69 89 151 202 86 192 77 161 207 22 232 173 252 205 75 195 53 196 79 31 140 13 26 196 180 207 120 190 161 192 157 180 96 183 246 89 172 218 93 56 178 224 89 79 155 242 199 16 72 159 134 48 195 111 157 213 244 139 79 156 3 253 181 247 254 13 73 100 48 55 237 254 177 50 232 230 185 156 97 8 
156 147 127 24 77 172 78 3 172 5 133 211 63 203 190 101 93 226 230 24 215 224 174 245 19 61 26 210 242 72 178 249 41 96 213 204 112 232 172 239 24 129 64 113 128 3 43 114 233 182 119 213 48 79 11 98 227 44 75 251 58 78 78 70 117 157 58 91 17 224 64 246 104 6 180 166 45 28 208 127 
113 186 169 191 105 121 69 216 121 125 43 45 165 186 10 242 69 135 44 1 24 34 118 77 14 231 244 180 114 170 101 194 198 188 94 220 247 27 103 79 88 68 173 204 223 57 182 208 51 36 159 107 253 46 103 253 7 247 190 81 161 57 225 167 205 23 250 37 188 147 143 50 9 171 119 54 70 162 213 78 
32 195 241 166 11 255 94 233 230 68 161 212 142 95 193 13 232 121 211 36 215 83 46 125 150 203 218 90 17 58 170 102 164 28 129 94 206 139 86 66 89 16 92 156 108 64 228 87 22 168 105 167 193 143 82 126 32 10 227 26 4 217 226 29 171 156 100 186 247 218 87 112 32 80 54 218 79 29 110 8 
41 166 12 115 56 60 83 75 84 137 188 129 185 201 186 106 18 0 170 188 221 130 255 190 48 184 121 124 79 158 255 111 160 114 138 25 116 37 176 39 49 5 71 127 73 21 151 204 151 173 182 7 134 199 111 114 164 142 73 144 250 156 34 152 205 124 234 215 45 223 242 157 230 7 81 13 64 242 236 122 
71 76 17 215 21 206 118 17 170 187 4 48 24 170 99 247 16 63 213 20 62 18 221 207 45 252 52 210 34 70 120 153 130 53 33 255 54 121 48 110 135 252 38 49 13 151 185 98 12 29 201 1 224 87 25 162 226 79 69 70 82 139 125 206 191 159 125 147 117 167 75 156 101 30 50 247 20 150 127 178 
104 152 26 138 130 185 128 68 32 226 11 189 152 207 216 63 53 128 138 43 218 222 236 145 142 45 64 90 113 200 184 115 145 159 150 134 56 5 119 183 21 70 68 241 213 130 81 54 162 85 29 122 17 198 68 135 237 1 21 108 121 87 81 242 146 9 149 154 58 92 234 165 18 117 1 168 55 130 152 36 
170 143 216 124 110 39 114 110 177 25 24 69 239 157 219 115 222 17 220 211 70 236 249 224 113 24 216 24 164 62 183 19 53 138 152 203 163 85 56 149 74 74 85 72 36 117 204 24 30 200 2 163 118 143 33 173 182 80 162 9 179 168 178 63 43 140 217 83 102 133 127 77 112 86 187 228 102 150 247 228 
26 107 255 46 240 20 191 138 228 131 230 240 240 56 199 29 204 197 199 204 137 146 199 57 160 248 190 187 0 57 21 243 143 204 53 28 173 134 207 231 35 27 101 129 24 117 127 35 119 106 35 194 80 68 4 88 178 167 230 70 127 80 190 76 186 40 13 155 199 55 240 134 48 236 106 64 86 59 106 64 
85 34 127 80 24 73 168 142 119 44 231 32 51 206 1 14 91 155 18 226 146 132 177 12 248 154 121 150 48 170 116 140 13 94 226 172 90 85 228 213 68 204 140 184 236 54 195 70 141 99 159 104 209 159 138 106 188 90 216 185 191 202 53 79 103 15 120 111 51 94 85 27 4 164 113 202 179 52 89 228 
65 103 48 55 209 88 108 12 86 162 85 188 213 190 38 187 65 130 217 176 174 220 108 61 136 122 234 101 81 220 195 33 115 71 237 158 136 43 70 162 193 107 201 157 196 16 5 220 157 232 98 110 51 136 171 46 204 62 99 115 19 100 98 238 41 165 61 47 67 163 245 80 79 138 112 82 29 13 56 148 
173 195 166 128 89 223 190 121 54 109 121 205 55 173 79 196 169 215 20 109 177 115 218 214 123 66 82 131 156 54 14 202 38 1 63 111 232 169 100 27 102 189 96 33 251 140 142 19 178 246 60 170 75 78 30 126 245 196 42 14 55 240 112 157 139 218 86 87 37 38 211 84 117 198 13 226 211 187 244 163 
38 117 19 12 138 129 218 179 221 172 156 86 208 83 98 74 115 65 120 206 123 35 147 87 27 113 69 1 252 93 80 203 199 46 82 255 208 157 71 87 83 162 100 98 207 70 208 146 247 223 174 152 190 87 12 98 249 218 25 105 30 136 71 162 153 161 187 190 60 159 150 12 68 214 159 171 126 5 185 96 
243 146 214 83 254 156 116 119 199 224 237 73 64 210 200 150 112 174 214 221 215 255 2 175 148 191 171 116 205 160 252 16 222 236 201 235 184 146 100 211 24 198 254 73 236 206 0 165 130 109 234 165 247 105 51 214 99 183 166 93 80 203 197 168 226 132 170 122 83 55 233 220 28 99 243 103 114 126 125 127 
162 185 87 13 231 29 175 26 173 110 208 189 223 41 249 55 46 186 185 148 195 69 205 137 31 126 221 31 158 3 169 166 45 194 32 105 156 234 217 185 38 226 126 182 152 202 150 102 166 6 66 144 231 80 94 234 254 212 135 3 102 215 148 130 104 100 239 37 193 130 90 15 105 116 161 218 4 135 172 247 
247 186 28 227 100 91 133 81 150 53 166 204 247 200 166 184 173 108 118 21 122 207 162 91 96 33 183 217 166 110 185 242 162 178 41 216 216 20 30 54 234 213 233 67 221 121 213 207 37 142 108 190 11 187 214 117 228 106 197 178 143 181 113 97 210 249 39 212 253 156 235 245 100 137 164 235 39 213 100 164 
81 72 111 65 236 195 121 128 135 27 213 134 39 76 37 229 196 137 181 58 181 219 204 169 198 88 117 177 147 117 67 218 151 240 142 186 118 211 167 216 252 15 134 225 89 51 115 185 23 183 37 232 66 104 218 224 82 97 237 145 72 41 94 230 133 101 214 147 221 162 166 182 95 181 61 225 88 64 152 236 
69 202 153 64 142 119 124 58 241 78 92 96 130 81 236 26 177 226 60 254 11 231 112 108 214 171 33 150 19 4 224 159 91 53 85 41 39 24 129 239 237 3 164 224 169 241 63 47 60 107 187 246 58 178 46 202 136 169 195 219 107 4 68 14 110 51 64 155 171 146 90 173 247 83 48 128 111 184 105 133 
110 180 221 193 227 77 94 213 87 160 108 219 32 204 251 59 203 103 124 50 74 85 68 202 114 191 253 183 63 184 154 159 99 6 97 73 153 153 111 55 74 42 82 41 240 124 33 8 204 213 166 188 93 15 10 100 39 221 144 133 63 182 212 143 28 233 23 96 62 89 15 27 14 98 199 253 145 108 2 136 
231 144 64 221 181 217 204 62 161 134 51 68 105 238 94 226 201 131 165 182 98 50 64 86 159 132 113 47 4 27 223 125 110 252 160 197 203 39 113 113 183 7 166 236 150 43 71 224 152 216 220 248 49 230 110 181 126 112 56 221 31 213 133 241 3 138 71 54 160 64 214 212 33 210 103 128 2 144 178 59 
239 136 55 206 22 167 221 149 253 215 241 186 35 11 182 198 106 77 11 182 18 252 106 43 146 200 120 18 203 227 178 64 13 237 183 141 124 28 162 226 76 19 7 199 84 0 254 228 126 102 211 253 137 42 197 234 172 83 100 0 143 3 4 127 25 46 206 108 159 133 228 109 228 26 34 29 118 68 249 85 
208 231 48 68 187 104 138 92 233 169 117 109 213 124 17 196 219 81 61 163 133 46 113 60 216 136 102 73 37 130 235 205 217 7 143 112 205 75 129 251 159 40 49 122 124 222 51 123 255 181 236 242 126 254 111 56 102 244 41 176 16 6 199 140 156 245 228 49 71 94 235 192 204 32 202 57 55 34 218 201 
0 69 226 21 58 80 228 218 253 190 220 36 183 168 242 30 27 235 13 140 196 245 199 209 78 226 123 249 72 85 10 78 160 169 192 249 232 223 230 36 13 221 122 49 251 109 148 108 157 145 242 211 208 151 44 93 190 119 14 80 32 254 168 30 230 62 118 75 208 204 59 221 103 60 3 209 233 120 209 31 
254 20 154 102 190 196 40 184 133 243 138 130 217 123 29 187 33 147 207 105 89 188 243 14 230 151 231 210 237 58 4 214 195 100 107 57 232 52 23 83 29 198 195 153 254 66 45 185 184 225 19 100 72 92 152 74 210 84 108 194 132 35 74 173 138 167 69 2 153 113 104 141 127 243 38 93 86 25 25 108 
133 96 144 240 142 61 185 200 128 208 236 119 100 224 166 67 3 33 38 7 253 141 142 135 206 145 186 98 84 162 72 29 70 158 103 193 42 137 212 151 68 43 147 126 251 249 231 89 54 226 247 15 56 113 181 175 110 204 127 42 189 0 242 28 192 55 123 61 138 59 32 227 87 213 1 27 187 135 19 225 
93 53 6 46 209 232 81 65 43 64 216 117 213 56 57 215 200 245 252 158 155 218 202 201 192 138 131 119 86 121 184 133 38 119 0 235 56 189 182 89 145 253 145 152 140 241 161 42 89 235 47 169 23 232 244 106 22 162 61 227 179 36 109 76 92 94 86 4 47 60 3 58 188 187 86 82 107 129 14 142 
191 104 79 112 139 102 224 135 53 74 250 17 105 39 174 217 3 218 237 66 41 210 250 83 233 58 27 229 223 19 18 128 107 177 233 97 229 35 124 33 100 8 83 145 138 66 63 54 216 36 75 240 13 115 101 76 10 228 97 254 201 118 189 6 206 60 168 246 175 9 226 236 28 142 213 175 246 92 126 117 
117 199 9 138 139 73 57 216 49 183 94 172 77 235 72 72 70 33 148 1 62 44 153 143 133 197 58 48 185 91 53 20 20 2 85 162 115 235 36 11 133 243 133 174 180 185 190 204 53 212 119 15 210 137 44 97 224 162 136 148 232 201 58 89 128 254 179 16 213 149 91 218 101 78 181 143 110 245 244 243 
255 185 56 154 105 100 118 150 226 100 136 74 176 18 52 15 151 158 70 69 118 247 64 73 250 181 238 40 233 118 75 134 135 51 70 72 149 18 218 106 104 48 2 156 151 226 7 8 198 239 163 227 8 72 128 38 88 177 148 14 175 236 200 200 49 211 140 228 241 243 179 244 211 30 48 237 0 115 43 189 
172 21 133 21 34 168 115 184 172 243 62 39 60 93 226 149 89 90 233 127 52 190 50 27 253 42 183 175 254 40 214 68 236 86 152 56 9 66 124 56 118 94 66 19 83 153 51 247 28 21 116 130 193 129 205 71 11 150 126 28 180 48 137 226 204 137 5 27 219 27 243 231 63 154 11 232 81 151 19 128 
11 47 122 169 173 48 0 25 123 126 213 204 185 18 193 187 48 188 110 120 170 209 78 44 19 101 224 237 205 151 232 212 162 86 1 95 232 57 44 153 68 226 181 148 162 96 15 159 204 39 16 207 49 5 25 78 78 164 173 239 70 29 227 149 35 7 79 213 56 150 205 111 57 69 183 6 111 131 2 165 
4 21 84 3 206 145 39 4 243 153 94 15 9 221 55 125 210 79 233 253 183 100 85 115 149 120 201 206 83 239 85 76 214 128 50 174 184 51 181 227 95 147 92 155 215 139 96 83 5 124 100 79 169 248 172 2 176 189 107 108 92 83 159 232 181 230 252 230 206 201 111 29 97 50 171 170 51 155 71 158 
190 110 112 90 25 15 73 25 55 135 102 77 50 27 197 49 92 74 214 168 221 198 76 85 132 125 217 131 86 74 107 105 87 173 93 75 8 42 36 237 31 187 247 228 250 221 232 62 73 178 0 4 114 194 203 22 47 210 231 217 224 80 255 75 32 226 206 226 5 130 139 207 169 190 94 19 91 137 66 240 
182 237 65 19 229 138 34 225 216 167 157 226 119 48 153 93 20 118 154 149 187 0 79 78 221 162 65 79 223 76 33 102 13 28 58 111 104 59 130 211 217 235 204 22 66 100 154 219 247 231 21 236 12 157 160 199 18 172 143 37 169 23 126 8 120 211 201 198 9 174 167 155 2 100 100 48 60 132 59 177 
211 50 26 59 78 250 200 232 130 113 47 184 17 24 6 248 154 208 10 132 142 112 77 194 214 8 11 8 192 74 144 235 173 157 153 243 23 87 203 66 80 165 175 149 151 153 178 64 239 220 182 127 64 148 165 194 66 232 147 88 175 181 229 5 68 232 1 1 3 0 10 225 64 63 32 232 254 252 176 68 
74 13 62 88 0 18 37 105 42 81 237 118 145 23 222 252 115 6 94 16 248 8 30 148 12 151 139 114 49 213 222 113 189 245 107 17 18 117 154 3 58 170 15 167 126 26 139 40 107 43 246 152 198 159 31 176 246 103 171 145 87 63 181 32 10 159 159 110 165 130 149 178 104 113 64 86 81 112 42 149 
218 226 208 105 206 78 85 0 162 155 144 57 106 47 51 194 4 43 116 240 52 229 95 103 15 152 70 180 67 202 190 100 183 245 194 21 7 222 101 251 86 44 163 100 244 182 200 179 107 6 242 79 87 159 44 19 156 111 155 178 122 8 82 150 241 2 51 181 5 41 109 227 89 208 19 30 158 236 77 73 
19 95 138 211 160 104 200 81 80 122 162 186 248 164 251 180 44 164 252 40 0 109 165 3 69 23 152 39 198 160 171 243 9 36 183 238 16 223 40 26 152 162 210 91 96 30 127 143 232 152 202 181 60 115 176 199 49 44 103 167 181 34 243 181 141 211 4 128 40 234 136 33 223 188 138 173 72 150 206 78 
195 202 248 182 250 41 210 241 36 168 150 62 17 207 76 63 38 84 198 94 144 146 85 183 92 197 36 141 249 151 193 197 158 107 70 233 36 249 185 58 190 178 6 69 31 105 44 131 136 200 16 131 66 18 121 25 252 160 176 32 147 189 87 54 202 52 217 16 94 56 9 202 15 10 114 203 14 243 193 172 
195 255 222 54 41 8 136 5 201 6 221 6 184 24 242 175 66 122 98 115 2 246 199 248 144 183 117 119 55 29 21 211 71 242 135 221 111 156 151 75 173 188 6 221 78 188 99 58 126 209 49 244 231 237 226 71 234 33 38 255 219 240 255 27 219 22 54 148 187 62 149 222 116 36 118 154 172 179 38 241 
217 187 72 179 249 71 206 57 161 56 87 228 158 207 156 254 31 132 37 48 190 125 160 47 255 84 104 136 201 193 208 251 90 141 157 247 49 115 66 170 114 66 77 46 68 241 150 75 166 244 154 86 65 126 160 166 172 16 4 34 178 228 77 106 7 179 111 24 1 81 204 156 191 165 109 42 83 120 244 74 
242 93 81 71 79 36 125 239 203 71 195 106 73 220 85 80 56 145 104 116 243 32 244 41 203 76 222 210 44 221 253 43 101 21 131 209 144 53 68 151 26 118 101 13 111 6 224 213 69 142 116 46 11 171 114 72 242 247 232 215 28 6 181 99 112 237 245 225 133 197 81 2 55 178 181 206 87 230 225 250 
66 195 224 110 127 87 19 209 41 236 43 147 29 15 58 77 213 143 69 91 229 206 83 177 131 241 78 81 148 127 31 234 198 233 160 42 46 117 208 43 246 28 211 149 142 198 52 221 230 119 255 63 58 229 17 200 215 238 66 37 122 130 205 129 170 114 131 30 168 165 79 18 88 54 117 166 198 4 38 235 
